<svg class="Icon trashIcon" width="24" height="24" viewBox="0 0 24 24" fill="none" xmlns="http://www.w3.org/2000/svg">
<path d="M18.4583 5.83333H16.2625C16.0981 5.03392 15.6631 4.31562 15.0309 3.79951C14.3987 3.2834 13.6078 3.00103 12.7917 3L11.375 3C10.5589 3.00103 9.76802 3.2834 9.13578 3.79951C8.50354 4.31562 8.06857 5.03392 7.90417 5.83333H5.70833C5.52047 5.83333 5.3403 5.90796 5.20747 6.0408C5.07463 6.17364 5 6.3538 5 6.54167C5 6.72953 5.07463 6.9097 5.20747 7.04253C5.3403 7.17537 5.52047 7.25 5.70833 7.25H6.41667V16.4583C6.41779 17.3973 6.79129 18.2975 7.45524 18.9614C8.11919 19.6254 9.01937 19.9989 9.95833 20H14.2083C15.1473 19.9989 16.0475 19.6254 16.7114 18.9614C17.3754 18.2975 17.7489 17.3973 17.75 16.4583V7.25H18.4583C18.6462 7.25 18.8264 7.17537 18.9592 7.04253C19.092 6.9097 19.1667 6.72953 19.1667 6.54167C19.1667 6.3538 19.092 6.17364 18.9592 6.0408C18.8264 5.90796 18.6462 5.83333 18.4583 5.83333ZM11.375 4.41667H12.7917C13.231 4.4172 13.6595 4.55364 14.0182 4.80727C14.377 5.0609 14.6485 5.41931 14.7955 5.83333H9.37112C9.51816 5.41931 9.78968 5.0609 10.1484 4.80727C10.5072 4.55364 10.9356 4.4172 11.375 4.41667ZM16.3333 16.4583C16.3333 17.0219 16.1095 17.5624 15.7109 17.9609C15.3124 18.3595 14.7719 18.5833 14.2083 18.5833H9.95833C9.39475 18.5833 8.85425 18.3595 8.45573 17.9609C8.05722 17.5624 7.83333 17.0219 7.83333 16.4583V7.25H16.3333V16.4583Z" fill="black"/>
<path d="M10.6668 15.75C10.8547 15.75 11.0349 15.6754 11.1677 15.5426C11.3005 15.4097 11.3752 15.2296 11.3752 15.0417V10.7917C11.3752 10.6038 11.3005 10.4237 11.1677 10.2908C11.0349 10.158 10.8547 10.0834 10.6668 10.0834C10.479 10.0834 10.2988 10.158 10.166 10.2908C10.0331 10.4237 9.9585 10.6038 9.9585 10.7917V15.0417C9.9585 15.2296 10.0331 15.4097 10.166 15.5426C10.2988 15.6754 10.479 15.75 10.6668 15.75Z" fill="black"/>
<path d="M13.5003 15.75C13.6882 15.75 13.8684 15.6754 14.0012 15.5426C14.134 15.4097 14.2087 15.2296 14.2087 15.0417V10.7917C14.2087 10.6038 14.134 10.4237 14.0012 10.2908C13.8684 10.158 13.6882 10.0834 13.5003 10.0834C13.3125 10.0834 13.1323 10.158 12.9995 10.2908C12.8666 10.4237 12.792 10.6038 12.792 10.7917V15.0417C12.792 15.2296 12.8666 15.4097 12.9995 15.5426C13.1323 15.6754 13.3125 15.75 13.5003 15.75Z" fill="black"/>
</svg>
